%TF.GenerationSoftware,KiCad,Pcbnew,8.0.7*%
%TF.CreationDate,2024-12-08T11:51:21+01:00*%
%TF.ProjectId,attiny_usb_pannel Pcb Kicad,61747469-6e79-45f7-9573-625f70616e6e,rev?*%
%TF.SameCoordinates,Original*%
%TF.FileFunction,Soldermask,Bot*%
%TF.FilePolarity,Negative*%
%FSLAX46Y46*%
G04 Gerber Fmt 4.6, Leading zero omitted, Abs format (unit mm)*
G04 Created by KiCad (PCBNEW 8.0.7) date 2024-12-08 11:51:21*
%MOMM*%
%LPD*%
G01*
G04 APERTURE LIST*
%ADD10R,0.850000X0.850000*%
%ADD11O,0.850000X0.850000*%
%ADD12R,1.800000X1.800000*%
%ADD13C,1.800000*%
G04 APERTURE END LIST*
D10*
%TO.C,J1*%
X191139200Y-131556000D03*
D11*
X192139200Y-131556000D03*
X193139200Y-131556000D03*
X194139200Y-131556000D03*
%TD*%
D12*
%TO.C,D1*%
X157276600Y-131632200D03*
D13*
X157276600Y-129092200D03*
%TD*%
D10*
%TO.C,J1*%
X190984200Y-145725000D03*
D11*
X191984200Y-145725000D03*
X192984200Y-145725000D03*
X193984200Y-145725000D03*
%TD*%
D12*
%TO.C,D1*%
X157144600Y-117150200D03*
D13*
X157144600Y-114610200D03*
%TD*%
D12*
%TO.C,D1*%
X199799600Y-102981200D03*
D13*
X199799600Y-100441200D03*
%TD*%
D10*
%TO.C,J1*%
X191139200Y-74533000D03*
D11*
X192139200Y-74533000D03*
X193139200Y-74533000D03*
X194139200Y-74533000D03*
%TD*%
D10*
%TO.C,J2*%
X192553800Y-79710400D03*
D11*
X191553800Y-79710400D03*
X190553800Y-79710400D03*
X189553800Y-79710400D03*
%TD*%
D10*
%TO.C,J1*%
X148639200Y-74533000D03*
D11*
X149639200Y-74533000D03*
X150639200Y-74533000D03*
X151639200Y-74533000D03*
%TD*%
D10*
%TO.C,J2*%
X192708800Y-122564400D03*
D11*
X191708800Y-122564400D03*
X190708800Y-122564400D03*
X189708800Y-122564400D03*
%TD*%
D10*
%TO.C,J2*%
X150231800Y-93913400D03*
D11*
X149231800Y-93913400D03*
X148231800Y-93913400D03*
X147231800Y-93913400D03*
%TD*%
D10*
%TO.C,J2*%
X192576800Y-108082400D03*
D11*
X191576800Y-108082400D03*
X190576800Y-108082400D03*
X189576800Y-108082400D03*
%TD*%
D10*
%TO.C,J1*%
X191162200Y-102905000D03*
D11*
X192162200Y-102905000D03*
X193162200Y-102905000D03*
X194162200Y-102905000D03*
%TD*%
D10*
%TO.C,J1*%
X191162200Y-159928000D03*
D11*
X192162200Y-159928000D03*
X193162200Y-159928000D03*
X194162200Y-159928000D03*
%TD*%
D10*
%TO.C,J2*%
X192731800Y-150936400D03*
D11*
X191731800Y-150936400D03*
X190731800Y-150936400D03*
X189731800Y-150936400D03*
%TD*%
D10*
%TO.C,J1*%
X148639200Y-131556000D03*
D11*
X149639200Y-131556000D03*
X150639200Y-131556000D03*
X151639200Y-131556000D03*
%TD*%
D12*
%TO.C,D1*%
X199776600Y-131632200D03*
D13*
X199776600Y-129092200D03*
%TD*%
D10*
%TO.C,J2*%
X192553800Y-136733400D03*
D11*
X191553800Y-136733400D03*
X190553800Y-136733400D03*
X189553800Y-136733400D03*
%TD*%
D12*
%TO.C,D1*%
X199621600Y-88778200D03*
D13*
X199621600Y-86238200D03*
%TD*%
D10*
%TO.C,J2*%
X150231800Y-150936400D03*
D11*
X149231800Y-150936400D03*
X148231800Y-150936400D03*
X147231800Y-150936400D03*
%TD*%
D12*
%TO.C,D1*%
X157121600Y-88778200D03*
D13*
X157121600Y-86238200D03*
%TD*%
D10*
%TO.C,J2*%
X150208800Y-65541400D03*
D11*
X149208800Y-65541400D03*
X148208800Y-65541400D03*
X147208800Y-65541400D03*
%TD*%
D10*
%TO.C,J1*%
X148484200Y-88702000D03*
D11*
X149484200Y-88702000D03*
X150484200Y-88702000D03*
X151484200Y-88702000D03*
%TD*%
D12*
%TO.C,D1*%
X157121600Y-145801200D03*
D13*
X157121600Y-143261200D03*
%TD*%
D12*
%TO.C,D1*%
X157299600Y-160004200D03*
D13*
X157299600Y-157464200D03*
%TD*%
D12*
%TO.C,D1*%
X199776600Y-74609200D03*
D13*
X199776600Y-72069200D03*
%TD*%
D10*
%TO.C,J1*%
X148662200Y-159928000D03*
D11*
X149662200Y-159928000D03*
X150662200Y-159928000D03*
X151662200Y-159928000D03*
%TD*%
D10*
%TO.C,J1*%
X148662200Y-102905000D03*
D11*
X149662200Y-102905000D03*
X150662200Y-102905000D03*
X151662200Y-102905000D03*
%TD*%
D10*
%TO.C,J2*%
X192731800Y-93913400D03*
D11*
X191731800Y-93913400D03*
X190731800Y-93913400D03*
X189731800Y-93913400D03*
%TD*%
D12*
%TO.C,D1*%
X199621600Y-145801200D03*
D13*
X199621600Y-143261200D03*
%TD*%
D10*
%TO.C,J1*%
X148484200Y-145725000D03*
D11*
X149484200Y-145725000D03*
X150484200Y-145725000D03*
X151484200Y-145725000D03*
%TD*%
D12*
%TO.C,D1*%
X199799600Y-160004200D03*
D13*
X199799600Y-157464200D03*
%TD*%
D12*
%TO.C,D1*%
X157299600Y-102981200D03*
D13*
X157299600Y-100441200D03*
%TD*%
D10*
%TO.C,J2*%
X150208800Y-122564400D03*
D11*
X149208800Y-122564400D03*
X148208800Y-122564400D03*
X147208800Y-122564400D03*
%TD*%
D12*
%TO.C,D1*%
X199644600Y-117150200D03*
D13*
X199644600Y-114610200D03*
%TD*%
D10*
%TO.C,J1*%
X148507200Y-117074000D03*
D11*
X149507200Y-117074000D03*
X150507200Y-117074000D03*
X151507200Y-117074000D03*
%TD*%
D10*
%TO.C,J2*%
X150053800Y-136733400D03*
D11*
X149053800Y-136733400D03*
X148053800Y-136733400D03*
X147053800Y-136733400D03*
%TD*%
D10*
%TO.C,J2*%
X150053800Y-79710400D03*
D11*
X149053800Y-79710400D03*
X148053800Y-79710400D03*
X147053800Y-79710400D03*
%TD*%
D12*
%TO.C,D1*%
X157276600Y-74609200D03*
D13*
X157276600Y-72069200D03*
%TD*%
D10*
%TO.C,J2*%
X150076800Y-108082400D03*
D11*
X149076800Y-108082400D03*
X148076800Y-108082400D03*
X147076800Y-108082400D03*
%TD*%
D10*
%TO.C,J2*%
X192708800Y-65541400D03*
D11*
X191708800Y-65541400D03*
X190708800Y-65541400D03*
X189708800Y-65541400D03*
%TD*%
D10*
%TO.C,J1*%
X191007200Y-117074000D03*
D11*
X192007200Y-117074000D03*
X193007200Y-117074000D03*
X194007200Y-117074000D03*
%TD*%
D10*
%TO.C,J1*%
X190984200Y-88702000D03*
D11*
X191984200Y-88702000D03*
X192984200Y-88702000D03*
X193984200Y-88702000D03*
%TD*%
M02*
